<svg width="14" height="24" viewBox="0 0 14 24" fill="none" xmlns="http://www.w3.org/2000/svg">
<path d="M12.6342 0.776306L9.69311 0.771484C6.3889 0.771484 4.25357 3.00988 4.25357 6.4744V9.10383H1.29644C1.04091 9.10383 0.833984 9.31549 0.833984 9.57658V13.3863C0.833984 13.6474 1.04115 13.8588 1.29644 13.8588H4.25357V23.472C4.25357 23.7331 4.4605 23.9445 4.71603 23.9445H8.57425C8.82978 23.9445 9.0367 23.7329 9.0367 23.472V13.8588H12.4943C12.7498 13.8588 12.9567 13.6474 12.9567 13.3863L12.9582 9.57658C12.9582 9.45122 12.9093 9.33116 12.8227 9.24245C12.7361 9.15373 12.6182 9.10383 12.4955 9.10383H9.0367V6.87483C9.0367 5.80348 9.28657 5.25961 10.6525 5.25961L12.6337 5.25889C12.889 5.25889 13.0959 5.04723 13.0959 4.78638V1.24882C13.0959 0.988213 12.8893 0.776788 12.6342 0.776306Z" fill="White"/>
</svg>
