<svg width="20" height="17" viewBox="0 0 20 17" fill="none" xmlns="http://www.w3.org/2000/svg">
<path fill-rule="evenodd" clip-rule="evenodd" d="M5.20116 2.85145C4.21644 2.85145 3.41816 3.64972 3.41816 4.63445C3.41816 5.61917 4.21644 6.41744 5.20116 6.41744C6.18588 6.41744 6.98415 5.61917 6.98415 4.63445C6.98415 3.64972 6.18588 2.85145 5.20116 2.85145ZM1.27856 4.63445C1.27856 2.46806 3.03477 0.711853 5.20116 0.711853C7.36755 0.711853 9.12375 2.46806 9.12375 4.63445C9.12375 6.80083 7.36755 8.55704 5.20116 8.55704C3.03477 8.55704 1.27856 6.80083 1.27856 4.63445Z" fill="#C3C7D6"/>
<path fill-rule="evenodd" clip-rule="evenodd" d="M7.65356 4.63444C7.65356 4.06355 8.23166 3.60075 8.94477 3.60075L16.984 3.60075C17.6971 3.60075 18.2752 4.06355 18.2752 4.63444C18.2752 5.20534 17.6971 5.66814 16.984 5.66814L8.94477 5.66814C8.23166 5.66814 7.65356 5.20534 7.65356 4.63444Z" fill="#C3C7D6"/>
<path fill-rule="evenodd" clip-rule="evenodd" d="M15.086 14.24C16.0707 14.24 16.8689 13.4417 16.8689 12.457C16.8689 11.4723 16.0707 10.674 15.086 10.674C14.1012 10.674 13.303 11.4723 13.303 12.457C13.303 13.4417 14.1012 14.24 15.086 14.24ZM19.0085 12.457C19.0085 14.6234 17.2523 16.3796 15.086 16.3796C12.9196 16.3796 11.1634 14.6234 11.1634 12.457C11.1634 10.2906 12.9196 8.53438 15.086 8.53438C17.2523 8.53438 19.0085 10.2906 19.0085 12.457Z" fill="#C3C7D6"/>
<path fill-rule="evenodd" clip-rule="evenodd" d="M12.6335 12.457C12.6335 13.0279 12.0683 13.4907 11.3711 13.4907L3.51108 13.4907C2.81386 13.4907 2.24865 13.0279 2.24865 12.457C2.24865 11.8861 2.81386 11.4233 3.51108 11.4233L11.3711 11.4233C12.0683 11.4233 12.6335 11.8861 12.6335 12.457Z" fill="#C3C7D6"/>
</svg>
