<svg width="22" height="22" viewBox="0 0 22 22" fill="none" xmlns="http://www.w3.org/2000/svg">
<g clip-path="url(#clip0)">
<path d="M21.2309 11.0481C21.2309 10.169 21.1595 9.52754 21.0049 8.8623H10.9512V12.83H16.8525C16.7335 13.816 16.091 15.3009 14.6633 16.2987L14.6433 16.4315L17.8221 18.8903L18.0423 18.9122C20.0649 17.0471 21.2309 14.303 21.2309 11.0481Z" fill="#4285F4"/>
<path d="M10.9507 21.5017C13.8418 21.5017 16.269 20.5513 18.0418 18.912L14.6628 16.2985C13.7586 16.9281 12.545 17.3676 10.9507 17.3676C8.11901 17.3676 5.71565 15.5026 4.85893 12.9248L4.73335 12.9355L1.42799 15.4895L1.38477 15.6095C3.14563 19.102 6.76259 21.5017 10.9507 21.5017Z" fill="#34A853"/>
<path d="M4.86047 12.9248C4.63441 12.2596 4.50358 11.5468 4.50358 10.8103C4.50358 10.0737 4.63441 9.36099 4.84857 8.69576L4.84258 8.55408L1.49581 5.95898L1.38631 6.01099C0.66057 7.46029 0.244141 9.08779 0.244141 10.8103C0.244141 12.5328 0.66057 14.1602 1.38631 15.6095L4.86047 12.9248Z" fill="#FBBC05"/>
<path d="M10.9507 4.25312C12.9614 4.25312 14.3177 5.12031 15.0911 5.845L18.1131 2.89891C16.2571 1.17641 13.8418 0.119141 10.9507 0.119141C6.76259 0.119141 3.14563 2.51875 1.38477 6.01125L4.84703 8.69602C5.71565 6.1182 8.119 4.25312 10.9507 4.25312Z" fill="#EB4335"/>
</g>
<defs>
<clipPath id="clip0">
<rect width="21" height="21.4565" fill="white" transform="translate(0.242188 0.119141)"/>
</clipPath>
</defs>
</svg>
