<svg width="19" height="17" viewBox="0 0 19 17" fill="none" xmlns="http://www.w3.org/2000/svg">
<path fill-rule="evenodd" clip-rule="evenodd" d="M4.71361 2.85145C3.72889 2.85145 2.93061 3.64972 2.93061 4.63445C2.93061 5.61917 3.72889 6.41744 4.71361 6.41744C5.69833 6.41744 6.49661 5.61917 6.49661 4.63445C6.49661 3.64972 5.69833 2.85145 4.71361 2.85145ZM0.791016 4.63445C0.791016 2.46806 2.54722 0.711853 4.71361 0.711853C6.88 0.711853 8.6362 2.46806 8.6362 4.63445C8.6362 6.80083 6.88 8.55704 4.71361 8.55704C2.54722 8.55704 0.791016 6.80083 0.791016 4.63445Z" fill="#028169"/>
<path fill-rule="evenodd" clip-rule="evenodd" d="M7.16602 4.63444C7.16602 4.06355 7.74411 3.60075 8.45722 3.60075L16.4964 3.60075C17.2095 3.60075 17.7876 4.06355 17.7876 4.63444C17.7876 5.20534 17.2095 5.66814 16.4964 5.66814L8.45722 5.66814C7.74411 5.66814 7.16602 5.20534 7.16602 4.63444Z" fill="#028169"/>
<path fill-rule="evenodd" clip-rule="evenodd" d="M14.5979 14.24C15.5826 14.24 16.3809 13.4417 16.3809 12.457C16.3809 11.4723 15.5826 10.674 14.5979 10.674C13.6132 10.674 12.8149 11.4723 12.8149 12.457C12.8149 13.4417 13.6132 14.24 14.5979 14.24ZM18.5205 12.457C18.5205 14.6234 16.7643 16.3796 14.5979 16.3796C12.4315 16.3796 10.6753 14.6234 10.6753 12.457C10.6753 10.2906 12.4315 8.53438 14.5979 8.53438C16.7643 8.53438 18.5205 10.2906 18.5205 12.457Z" fill="#028169"/>
<path fill-rule="evenodd" clip-rule="evenodd" d="M12.1455 12.457C12.1455 13.0279 11.5803 13.4907 10.8831 13.4907L3.02304 13.4907C2.32582 13.4907 1.76061 13.0279 1.76061 12.457C1.76061 11.8861 2.32582 11.4233 3.02304 11.4233L10.8831 11.4233C11.5803 11.4233 12.1455 11.8861 12.1455 12.457Z" fill="#028169"/>
</svg>
