<svg width="26" height="28" viewBox="0 0 26 28" fill="none" xmlns="http://www.w3.org/2000/svg">
<ellipse cx="13.1387" cy="13.9219" rx="12.5" ry="13.3476" fill="white"/>
<path d="M19.9809 10.1114L16.6937 6.60129C16.5847 6.48494 16.4576 6.42676 16.3123 6.42676C16.167 6.42676 16.0217 6.48494 15.9309 6.60129L7.21343 15.9293C7.14078 16.0069 7.0863 16.1038 7.06814 16.2202L6.14191 20.7C6.10558 20.8939 6.16007 21.0878 6.2872 21.243C6.39617 21.3593 6.5233 21.4175 6.66859 21.4175C6.70491 21.4175 6.74123 21.4175 6.77756 21.3981L10.9728 20.4091C11.0818 20.3897 11.1726 20.3315 11.2453 20.2539L19.9809 10.9453C20.0899 10.829 20.1443 10.6932 20.1443 10.5381C20.1443 10.3635 20.0899 10.2084 19.9809 10.1114ZM8.3576 16.3365L14.369 9.91749L16.8753 12.5937L10.8639 19.0128L8.3576 16.3365ZM7.90356 17.5001L9.77419 19.4976L7.37688 20.06L7.90356 17.5001ZM17.6562 11.7598L15.15 9.08359L16.3305 7.82305L18.8549 10.5187L17.6562 11.7598Z" fill="#FE4D57"/>
</svg>
