<svg width="17" height="14" viewBox="0 0 17 14" fill="#000000" xmlns="http://www.w3.org/2000/svg">
<path d="M13.8149 3.73145V0.481445H12.2072V1.45645L0.953125 4.70645V9.17519L2.64123 9.6627C2.48046 10.3939 2.64123 11.1252 2.96277 11.7752C3.3647 12.5064 4.08818 13.0752 4.89204 13.3189C5.93705 13.6439 6.8213 13.3189 7.30362 12.9939C7.9467 12.6689 8.42902 12.1002 8.67018 11.3689L12.1268 12.3439V13.4814H13.7345V10.2314C15.503 10.2314 16.9499 8.76895 16.9499 6.98145C17.0303 5.19395 15.5834 3.73145 13.8149 3.73145ZM5.37435 11.7752C4.97242 11.6939 4.16856 11.2064 4.16856 10.1502L7.14284 11.0439C6.8213 11.6939 6.09783 12.0189 5.37435 11.7752ZM2.56084 7.95645V6.00645L12.2072 3.24395V10.8002L2.56084 7.95645ZM13.8149 8.60645V5.35645C14.6991 5.35645 15.4226 6.0877 15.4226 6.98145C15.4226 7.8752 14.6991 8.60645 13.8149 8.60645Z" />
</svg>
