<svg width="19" height="19" viewBox="0 0 19 19" fill="none" xmlns="http://www.w3.org/2000/svg">
<path d="M8.6102 15.6799C10.2536 15.6799 11.7712 15.1545 13.0154 14.2699L16.8262 18.0909C17.0744 18.3389 17.3997 18.4629 17.725 18.4629C18.0503 18.4629 18.3756 18.3389 18.6238 18.0909C19.1202 17.5949 19.1202 16.7905 18.6238 16.2945L14.8132 12.4735C15.6985 11.2303 16.2243 9.71369 16.2243 8.07149C16.2243 3.86929 12.8153 0.462891 8.6102 0.462891C4.40508 0.462891 0.996094 3.86929 0.996094 8.07129C0.996094 12.2735 4.40508 15.6799 8.6102 15.6799ZM8.6102 2.99909C11.4091 2.99909 13.6863 5.27449 13.6863 8.07149C13.6863 9.12489 13.3608 10.1385 12.7453 11.0031L12.2459 11.7045L11.5441 12.2035C10.6789 12.8187 9.6644 13.1439 8.6102 13.1439C5.81135 13.1439 3.53427 10.8685 3.53427 8.07149C3.53406 5.27449 5.81135 2.99909 8.6102 2.99909Z" fill="#959BB4"/>
</svg>
