<svg width="16" height="16" viewBox="0 0 16 16" fill="#000000" xmlns="http://www.w3.org/2000/svg">
<path fill-rule="evenodd" clip-rule="evenodd" d="M1.78516 0.481445H13.7852C14.6101 0.481445 15.2852 1.15646 15.2852 1.98145V13.9814C15.2852 14.8064 14.6101 15.4814 13.7852 15.4814H1.78516C0.960175 15.4814 0.285156 14.8064 0.285156 13.9814V1.98145C0.285156 1.15646 0.960175 0.481445 1.78516 0.481445ZM11.4602 10.9814H13.7852V1.98145H1.78516V10.9814H4.11014C4.48514 9.25641 5.98514 7.98145 7.78516 7.98145C9.58517 7.98145 11.0852 9.25641 11.4602 10.9814ZM7.78516 9.48145C6.81012 9.48145 5.98514 10.0815 5.68512 10.9814H9.88519C9.58517 10.0815 8.76019 9.48145 7.78516 9.48145ZM1.78516 12.4814V13.9814H13.7852V12.4814H1.78516ZM7.78516 3.48145C9.06012 3.48145 10.0352 4.45648 10.0352 5.73145C10.0352 7.00641 9.06012 7.98145 7.78516 7.98145C6.51019 7.98145 5.53516 7.00641 5.53516 5.73145C5.53516 4.45648 6.51019 3.48145 7.78516 3.48145ZM7.03516 5.73145C7.03516 6.18143 7.33517 6.48145 7.78516 6.48145C8.23514 6.48145 8.53516 6.18143 8.53516 5.73145C8.53516 5.28146 8.23514 4.98145 7.78516 4.98145C7.33517 4.98145 7.03516 5.28146 7.03516 5.73145Z" />
</svg>
