<svg width="16" height="16" viewBox="0 0 16 16" fill="none" xmlns="http://www.w3.org/2000/svg">
<path d="M8.24833 7.5127C4.19944 7.5127 0.886719 10.8254 0.886719 14.8743V15.6105H15.6099V14.8743C15.6099 10.8254 12.2972 7.5127 8.24833 7.5127ZM2.43266 14.1381C2.80074 11.2671 5.30368 8.98502 8.24833 8.98502C11.2666 8.98502 13.6959 11.2671 14.064 14.1381H2.43266Z" fill="#CED2E3"/>
<path d="M8.24738 6.77698C9.86693 6.77698 11.192 5.45189 11.192 3.83234C11.192 2.21278 9.86693 0.887695 8.24738 0.887695C6.62782 0.887695 5.30273 2.21278 5.30273 3.83234C5.30273 5.45189 6.62782 6.77698 8.24738 6.77698ZM8.24738 2.36002C9.05715 2.36002 9.7197 3.02256 9.7197 3.83234C9.7197 4.64212 9.05715 5.30466 8.24738 5.30466C7.4376 5.30466 6.77506 4.64212 6.77506 3.83234C6.77506 3.02256 7.4376 2.36002 8.24738 2.36002Z" fill="#CED2E3"/>
</svg>
