<svg width="12" height="12" viewBox="0 0 12 12" fill="none" xmlns="http://www.w3.org/2000/svg">
<path d="M6.36523 0.806641C3.32764 0.806641 0.865234 3.26905 0.865234 6.30664C0.865234 9.34423 3.32764 11.8066 6.36523 11.8066C9.40283 11.8066 11.8652 9.34423 11.8652 6.30664C11.8654 3.26905 9.40283 0.806641 6.36523 0.806641ZM7.55132 9.39033C7.2636 9.50368 7.03409 9.59013 6.86266 9.64968C6.69122 9.70923 6.49216 9.73907 6.26558 9.73907C5.91685 9.73907 5.64588 9.65408 5.45281 9.48412C5.25949 9.31415 5.16289 9.09846 5.16289 8.83691C5.16289 8.73518 5.1701 8.63136 5.18465 8.52523C5.1992 8.41921 5.22244 8.29938 5.25435 8.16573L5.61409 6.89308C5.64625 6.77105 5.67327 6.65562 5.69504 6.54655C5.7168 6.4376 5.72781 6.33807 5.72781 6.24807C5.72781 6.08532 5.6943 5.97209 5.6273 5.90814C5.56029 5.84431 5.43214 5.81228 5.24274 5.81228C5.14956 5.81228 5.05418 5.82683 4.95649 5.85581C4.85879 5.88491 4.77503 5.91242 4.70521 5.93859L4.80119 5.54633C5.03682 5.45046 5.2623 5.36841 5.47751 5.30006C5.69271 5.23183 5.89643 5.19771 6.0884 5.19771C6.43457 5.19771 6.70149 5.28135 6.88907 5.44826C7.07664 5.61541 7.17043 5.83257 7.17043 6.09987C7.17043 6.15514 7.16382 6.25247 7.15074 6.39187C7.13766 6.53126 7.11369 6.65929 7.07884 6.77545L6.72045 8.04382C6.69122 8.14556 6.66493 8.26172 6.6417 8.39256C6.61847 8.52339 6.60673 8.62207 6.60673 8.68895C6.60673 8.85745 6.64439 8.97227 6.71984 9.03329C6.79528 9.0943 6.92587 9.12487 7.11161 9.12487C7.19855 9.12487 7.29723 9.10959 7.40752 9.07914C7.51769 9.04857 7.59754 9.02179 7.64694 8.99844L7.55132 9.39033ZM7.4881 4.24078C7.32095 4.39619 7.1198 4.47396 6.88442 4.47396C6.64904 4.47396 6.44704 4.39631 6.27854 4.24078C6.11004 4.08536 6.02579 3.89718 6.02579 3.67635C6.02579 3.45552 6.11004 3.2666 6.27854 3.10972C6.44704 2.95284 6.64904 2.87434 6.88442 2.87434C7.1198 2.87434 7.32095 2.95284 7.4881 3.10972C7.65513 3.2666 7.73877 3.45552 7.73877 3.67635C7.73877 3.89718 7.65513 4.08536 7.4881 4.24078Z" fill="#41204B"/>
</svg>
