<svg width="16" height="16" viewBox="0 0 16 16" fill="#000000" xmlns="http://www.w3.org/2000/svg">
<path d="M15.2852 5.73145V4.30645V4.23145C15.2852 4.08145 15.2102 3.93145 15.1352 3.78145L13.7102 0.931445C13.5602 0.631445 13.3352 0.481445 13.0352 0.481445H2.53516C2.23516 0.481445 2.01016 0.631445 1.86016 0.931445L0.360156 3.93145C0.360156 3.93145 0.360156 3.93145 0.360156 4.00645C0.285156 4.08145 0.285156 4.15645 0.285156 4.23145V5.73145C0.285156 6.85645 0.885156 7.83145 1.78516 8.28145V13.9814H0.285156V15.4814H15.2852V13.9814H13.7852V8.28145C14.6852 7.83145 15.2852 6.85645 15.2852 5.73145ZM13.7852 5.73145C13.7852 6.55645 13.1102 7.23145 12.2852 7.23145C11.4602 7.23145 10.7852 6.55645 10.7852 5.73145V4.98145H13.7852V5.73145ZM9.28516 5.73145C9.28516 6.55645 8.61016 7.23145 7.78516 7.23145C6.96016 7.23145 6.28516 6.55645 6.28516 5.73145V4.98145H9.28516V5.73145ZM4.78516 5.73145C4.78516 6.55645 4.11016 7.23145 3.28516 7.23145C2.46016 7.23145 1.78516 6.55645 1.78516 5.73145V4.98145H4.78516V5.73145ZM9.13516 3.48145H6.43516L6.66016 1.98145H8.91016L9.13516 3.48145ZM13.3352 3.48145H10.7102L10.4852 1.98145H12.6602L13.3352 3.48145ZM2.98516 1.98145H5.16016L4.86016 3.48145H2.23516L2.98516 1.98145ZM3.28516 8.73145C4.18516 8.73145 5.01016 8.35645 5.53516 7.68145C6.06016 8.28145 6.88516 8.73145 7.78516 8.73145V13.9814H3.28516V8.73145ZM12.2852 13.9814H9.28516V11.7314H10.0352V10.2314H9.28516V8.35645C9.58516 8.20645 9.81016 7.98145 10.0352 7.75644C10.5602 8.35645 11.3852 8.80645 12.2852 8.80645V13.9814Z" />
</svg>
