<svg width="24" height="21" viewBox="0 0 24 21" fill="none" xmlns="http://www.w3.org/2000/svg">
<path fill-rule="evenodd" clip-rule="evenodd" d="M17.56 0.126953C19.0694 0.126953 20.5215 0.723538 21.5897 1.79402C22.6591 2.86224 23.2568 4.30305 23.2568 5.8114V14.7039C23.2568 17.8444 20.7016 20.3883 17.56 20.3883H6.43984C3.2982 20.3883 0.744141 17.8444 0.744141 14.7039V5.8114C0.744141 2.67088 3.28694 0.126953 6.43984 0.126953H17.56ZM19.3508 7.48929L19.4408 7.39924C19.7098 7.07281 19.7098 6.60004 19.4284 6.27361C19.272 6.10589 19.057 6.00346 18.833 5.98094C18.5966 5.96856 18.3715 6.04848 18.2015 6.20607L13.126 10.2583C12.4732 10.7998 11.5378 10.7998 10.8748 10.2583L5.80941 6.20607C5.45934 5.94718 4.97531 5.98094 4.68378 6.28487C4.37986 6.58879 4.34609 7.07281 4.60386 7.4105L4.75131 7.55683L9.87294 11.5528C10.5033 12.0481 11.2676 12.3183 12.0679 12.3183C12.866 12.3183 13.6438 12.0481 14.273 11.5528L19.3508 7.48929Z" fill="#387F6A"/>
</svg>
